<mxfile host="app.diagrams.net" modified="2023-02-11T08:42:28.011Z" agent="5.0 (Windows NT 10.0; Win64; x64) AppleWebKit/537.36 (KHTML, like Gecko) Chrome/107.0.0.0 Safari/537.36" etag="8c3Vaf9dLdB1xNstWJys" version="20.8.5" type="github" pages="2">
  <diagram id="2QaJKraNP7_s9oX8NELw" name="第 1 页">
    <mxGraphModel dx="2261" dy="1933" grid="1" gridSize="10" guides="1" tooltips="1" connect="1" arrows="1" fold="1" page="1" pageScale="1" pageWidth="827" pageHeight="1169" math="0" shadow="0">
      <root>
        <mxCell id="0" />
        <mxCell id="1" parent="0" />
        <mxCell id="NPvGiKjx7n4U_hySeIdq-13" value="" style="group;fillColor=#dae8fc;strokeColor=#6c8ebf;container=0;" parent="1" vertex="1" connectable="0">
          <mxGeometry x="40" y="120" width="160" height="80" as="geometry" />
        </mxCell>
        <mxCell id="NPvGiKjx7n4U_hySeIdq-14" style="edgeStyle=orthogonalEdgeStyle;rounded=0;orthogonalLoop=1;jettySize=auto;html=1;exitX=1;exitY=0.5;exitDx=0;exitDy=0;entryX=0;entryY=0.5;entryDx=0;entryDy=0;fontSize=14;" parent="1" source="NPvGiKjx7n4U_hySeIdq-1" target="NPvGiKjx7n4U_hySeIdq-3" edge="1">
          <mxGeometry relative="1" as="geometry" />
        </mxCell>
        <mxCell id="NPvGiKjx7n4U_hySeIdq-18" style="edgeStyle=orthogonalEdgeStyle;rounded=0;orthogonalLoop=1;jettySize=auto;html=1;exitX=1;exitY=0.5;exitDx=0;exitDy=0;entryX=0;entryY=0.5;entryDx=0;entryDy=0;fontSize=14;" parent="1" source="NPvGiKjx7n4U_hySeIdq-3" target="NPvGiKjx7n4U_hySeIdq-5" edge="1">
          <mxGeometry relative="1" as="geometry" />
        </mxCell>
        <mxCell id="NPvGiKjx7n4U_hySeIdq-19" style="edgeStyle=orthogonalEdgeStyle;rounded=0;orthogonalLoop=1;jettySize=auto;html=1;exitX=1;exitY=0.5;exitDx=0;exitDy=0;entryX=0;entryY=0.5;entryDx=0;entryDy=0;fontSize=14;" parent="1" source="NPvGiKjx7n4U_hySeIdq-5" target="NPvGiKjx7n4U_hySeIdq-7" edge="1">
          <mxGeometry relative="1" as="geometry" />
        </mxCell>
        <mxCell id="NPvGiKjx7n4U_hySeIdq-20" value="" style="endArrow=classic;html=1;rounded=0;fontSize=14;entryX=0;entryY=0.5;entryDx=0;entryDy=0;exitX=0;exitY=1;exitDx=0;exitDy=0;" parent="1" source="NPvGiKjx7n4U_hySeIdq-27" target="NPvGiKjx7n4U_hySeIdq-1" edge="1">
          <mxGeometry width="50" height="50" relative="1" as="geometry">
            <mxPoint x="-60" y="160" as="sourcePoint" />
            <mxPoint x="-80" y="150" as="targetPoint" />
          </mxGeometry>
        </mxCell>
        <mxCell id="NPvGiKjx7n4U_hySeIdq-22" value="main.i&lt;br&gt;(text)" style="text;html=1;strokeColor=none;fillColor=none;align=center;verticalAlign=middle;whiteSpace=wrap;rounded=0;fontSize=14;" parent="1" vertex="1">
          <mxGeometry x="210" y="120" width="60" height="40" as="geometry" />
        </mxCell>
        <mxCell id="NPvGiKjx7n4U_hySeIdq-23" value="main.s&lt;br&gt;(text)" style="text;html=1;strokeColor=none;fillColor=none;align=center;verticalAlign=middle;whiteSpace=wrap;rounded=0;fontSize=14;" parent="1" vertex="1">
          <mxGeometry x="450" y="120" width="60" height="40" as="geometry" />
        </mxCell>
        <mxCell id="NPvGiKjx7n4U_hySeIdq-24" value="main.s&lt;br&gt;(binary)" style="text;html=1;strokeColor=none;fillColor=none;align=center;verticalAlign=middle;whiteSpace=wrap;rounded=0;fontSize=14;" parent="1" vertex="1">
          <mxGeometry x="690" y="120" width="60" height="40" as="geometry" />
        </mxCell>
        <mxCell id="NPvGiKjx7n4U_hySeIdq-25" style="edgeStyle=orthogonalEdgeStyle;rounded=0;orthogonalLoop=1;jettySize=auto;html=1;exitX=1;exitY=0.5;exitDx=0;exitDy=0;fontSize=14;" parent="1" source="NPvGiKjx7n4U_hySeIdq-7" edge="1">
          <mxGeometry relative="1" as="geometry">
            <mxPoint x="1000" y="160" as="targetPoint" />
          </mxGeometry>
        </mxCell>
        <mxCell id="NPvGiKjx7n4U_hySeIdq-26" value="main&lt;br&gt;(binary)" style="text;html=1;strokeColor=none;fillColor=none;align=center;verticalAlign=middle;whiteSpace=wrap;rounded=0;fontSize=14;" parent="1" vertex="1">
          <mxGeometry x="920" y="120" width="70" height="40" as="geometry" />
        </mxCell>
        <mxCell id="NPvGiKjx7n4U_hySeIdq-27" value="&lt;span style=&quot;background-color: rgb(255, 255, 255);&quot;&gt;main.c&lt;/span&gt;&lt;br style=&quot;&quot;&gt;&lt;span style=&quot;background-color: rgb(255, 255, 255);&quot;&gt;(text)&lt;/span&gt;" style="text;html=1;strokeColor=none;fillColor=none;align=center;verticalAlign=middle;whiteSpace=wrap;rounded=0;fontSize=14;" parent="1" vertex="1">
          <mxGeometry x="-40" y="120" width="70" height="40" as="geometry" />
        </mxCell>
        <mxCell id="NPvGiKjx7n4U_hySeIdq-1" value="" style="rounded=0;whiteSpace=wrap;html=1;fillColor=#dae8fc;strokeColor=#6c8ebf;" parent="1" vertex="1">
          <mxGeometry x="40" y="120" width="160" height="80" as="geometry" />
        </mxCell>
        <mxCell id="NPvGiKjx7n4U_hySeIdq-2" value="&lt;font style=&quot;font-size: 14px;&quot;&gt;&lt;b&gt;预处理阶段Preprocessing&lt;/b&gt;&lt;/font&gt;" style="text;html=1;strokeColor=#6c8ebf;fillColor=#dae8fc;align=center;verticalAlign=middle;whiteSpace=wrap;rounded=0;" parent="1" vertex="1">
          <mxGeometry x="40" y="120" width="160" height="40" as="geometry" />
        </mxCell>
        <mxCell id="NPvGiKjx7n4U_hySeIdq-9" value="g++ -E" style="text;html=1;strokeColor=none;fillColor=none;align=center;verticalAlign=middle;whiteSpace=wrap;rounded=0;fontSize=14;" parent="1" vertex="1">
          <mxGeometry x="40" y="170" width="160" height="30" as="geometry" />
        </mxCell>
        <mxCell id="NPvGiKjx7n4U_hySeIdq-3" value="" style="rounded=0;whiteSpace=wrap;html=1;fillColor=#dae8fc;strokeColor=#6c8ebf;" parent="1" vertex="1">
          <mxGeometry x="280" y="120" width="160" height="80" as="geometry" />
        </mxCell>
        <mxCell id="NPvGiKjx7n4U_hySeIdq-4" value="&lt;span style=&quot;box-sizing: border-box; outline: 0px; overflow-wrap: break-word; font-family: -apple-system, &amp;quot;SF UI Text&amp;quot;, Arial, &amp;quot;PingFang SC&amp;quot;, &amp;quot;Hiragino Sans GB&amp;quot;, &amp;quot;Microsoft YaHei&amp;quot;, &amp;quot;WenQuanYi Micro Hei&amp;quot;, sans-serif, SimHei, SimSun; font-size: 16px; text-align: left;&quot;&gt;&lt;span style=&quot;box-sizing: border-box; outline: 0px; margin: 0px; padding: 0px; overflow-wrap: break-word; font-size: 14px;&quot;&gt;&lt;b style=&quot;&quot;&gt;编译阶段&lt;br&gt;Compilation&lt;/b&gt;&lt;/span&gt;&lt;/span&gt;" style="text;html=1;strokeColor=#6c8ebf;fillColor=#dae8fc;align=center;verticalAlign=middle;whiteSpace=wrap;rounded=0;" parent="1" vertex="1">
          <mxGeometry x="280" y="120" width="160" height="40" as="geometry" />
        </mxCell>
        <mxCell id="NPvGiKjx7n4U_hySeIdq-10" value="g++ -S" style="text;html=1;strokeColor=none;fillColor=none;align=center;verticalAlign=middle;whiteSpace=wrap;rounded=0;fontSize=14;" parent="1" vertex="1">
          <mxGeometry x="280" y="170" width="160" height="30" as="geometry" />
        </mxCell>
        <mxCell id="NPvGiKjx7n4U_hySeIdq-5" value="" style="rounded=0;whiteSpace=wrap;html=1;fillColor=#dae8fc;strokeColor=#6c8ebf;" parent="1" vertex="1">
          <mxGeometry x="520" y="120" width="160" height="80" as="geometry" />
        </mxCell>
        <mxCell id="NPvGiKjx7n4U_hySeIdq-6" value="&lt;span style=&quot;box-sizing: border-box; outline: 0px; font-weight: 700; overflow-wrap: break-word; font-family: -apple-system, &amp;quot;SF UI Text&amp;quot;, Arial, &amp;quot;PingFang SC&amp;quot;, &amp;quot;Hiragino Sans GB&amp;quot;, &amp;quot;Microsoft YaHei&amp;quot;, &amp;quot;WenQuanYi Micro Hei&amp;quot;, sans-serif, SimHei, SimSun; font-size: 16px; text-align: left;&quot;&gt;&lt;span style=&quot;box-sizing: border-box; outline: 0px; margin: 0px; padding: 0px; overflow-wrap: break-word; font-size: 14px;&quot;&gt;汇编阶段&lt;br&gt;Assembly&lt;/span&gt;&lt;/span&gt;" style="text;html=1;strokeColor=#6c8ebf;fillColor=#dae8fc;align=center;verticalAlign=middle;whiteSpace=wrap;rounded=0;" parent="1" vertex="1">
          <mxGeometry x="520" y="120" width="160" height="40" as="geometry" />
        </mxCell>
        <mxCell id="NPvGiKjx7n4U_hySeIdq-11" value="g++ -c" style="text;html=1;strokeColor=none;fillColor=none;align=center;verticalAlign=middle;whiteSpace=wrap;rounded=0;fontSize=14;" parent="1" vertex="1">
          <mxGeometry x="520" y="170" width="160" height="30" as="geometry" />
        </mxCell>
        <mxCell id="NPvGiKjx7n4U_hySeIdq-7" value="" style="rounded=0;whiteSpace=wrap;html=1;fillColor=#dae8fc;strokeColor=#6c8ebf;" parent="1" vertex="1">
          <mxGeometry x="760" y="120" width="160" height="80" as="geometry" />
        </mxCell>
        <mxCell id="NPvGiKjx7n4U_hySeIdq-8" value="&lt;span style=&quot;box-sizing: border-box; outline: 0px; font-weight: 700; overflow-wrap: break-word; font-family: -apple-system, &amp;quot;SF UI Text&amp;quot;, Arial, &amp;quot;PingFang SC&amp;quot;, &amp;quot;Hiragino Sans GB&amp;quot;, &amp;quot;Microsoft YaHei&amp;quot;, &amp;quot;WenQuanYi Micro Hei&amp;quot;, sans-serif, SimHei, SimSun; font-size: 16px; text-align: left;&quot;&gt;&lt;span style=&quot;box-sizing: border-box; outline: 0px; margin: 0px; padding: 0px; overflow-wrap: break-word; font-size: 14px;&quot;&gt;链接阶段&lt;br&gt;Linking&lt;/span&gt;&lt;/span&gt;" style="text;html=1;strokeColor=#6c8ebf;fillColor=#dae8fc;align=center;verticalAlign=middle;whiteSpace=wrap;rounded=0;" parent="1" vertex="1">
          <mxGeometry x="760" y="120" width="160" height="40" as="geometry" />
        </mxCell>
        <mxCell id="NPvGiKjx7n4U_hySeIdq-12" value="ld" style="text;html=1;strokeColor=none;fillColor=none;align=center;verticalAlign=middle;whiteSpace=wrap;rounded=0;fontSize=14;" parent="1" vertex="1">
          <mxGeometry x="760" y="170" width="160" height="30" as="geometry" />
        </mxCell>
        <mxCell id="NPvGiKjx7n4U_hySeIdq-28" value="&lt;h1&gt;C++编译原理&lt;/h1&gt;&lt;p&gt;L&lt;/p&gt;" style="text;html=1;strokeColor=none;fillColor=none;spacing=5;spacingTop=-20;whiteSpace=wrap;overflow=hidden;rounded=0;labelBackgroundColor=none;fontSize=14;" parent="1" vertex="1">
          <mxGeometry y="-40" width="880" height="120" as="geometry" />
        </mxCell>
      </root>
    </mxGraphModel>
  </diagram>
  <diagram id="-bMnwvA1zlrodXuLsn9L" name="ObjectModel">
    <mxGraphModel dx="1234" dy="1892" grid="1" gridSize="10" guides="1" tooltips="1" connect="1" arrows="1" fold="1" page="1" pageScale="1" pageWidth="827" pageHeight="1169" math="0" shadow="0">
      <root>
        <mxCell id="0" />
        <mxCell id="1" parent="0" />
        <mxCell id="Qu3RIkdoz-vAz7AUVEhQ-127" value="" style="rounded=0;whiteSpace=wrap;html=1;fontSize=14;fillColor=#f5f5f5;fontColor=#333333;strokeColor=none;" vertex="1" parent="1">
          <mxGeometry x="630" y="850" width="140" height="100" as="geometry" />
        </mxCell>
        <mxCell id="Qu3RIkdoz-vAz7AUVEhQ-126" value="" style="rounded=0;whiteSpace=wrap;html=1;fontSize=14;fillColor=#f5f5f5;fontColor=#333333;strokeColor=none;" vertex="1" parent="1">
          <mxGeometry x="180" y="870" width="410" height="170" as="geometry" />
        </mxCell>
        <mxCell id="Qu3RIkdoz-vAz7AUVEhQ-125" value="" style="rounded=0;whiteSpace=wrap;html=1;fontSize=14;fillColor=#eeeeee;strokeColor=none;" vertex="1" parent="1">
          <mxGeometry x="180" y="680" width="410" height="170" as="geometry" />
        </mxCell>
        <mxCell id="Qu3RIkdoz-vAz7AUVEhQ-124" value="" style="rounded=0;whiteSpace=wrap;html=1;fontSize=14;fillColor=#f5f5f5;fontColor=#333333;strokeColor=none;" vertex="1" parent="1">
          <mxGeometry x="-280" y="710" width="430" height="240" as="geometry" />
        </mxCell>
        <mxCell id="Qu3RIkdoz-vAz7AUVEhQ-1" value="&lt;font style=&quot;font-size: 14px;&quot;&gt;Point::Point(float)&lt;/font&gt;" style="rounded=0;whiteSpace=wrap;html=1;fillColor=#dae8fc;strokeColor=#6c8ebf;align=left;" vertex="1" parent="1">
          <mxGeometry y="80" width="240" height="40" as="geometry" />
        </mxCell>
        <mxCell id="Qu3RIkdoz-vAz7AUVEhQ-2" value="&lt;font style=&quot;font-size: 14px;&quot;&gt;float Point::x()&lt;/font&gt;" style="rounded=0;whiteSpace=wrap;html=1;fillColor=#dae8fc;strokeColor=#6c8ebf;align=left;" vertex="1" parent="1">
          <mxGeometry y="240" width="240" height="40" as="geometry" />
        </mxCell>
        <mxCell id="Qu3RIkdoz-vAz7AUVEhQ-3" value="&lt;font style=&quot;font-size: 14px;&quot;&gt;Point::~Point()&lt;/font&gt;" style="rounded=0;whiteSpace=wrap;html=1;fillColor=#dae8fc;strokeColor=#6c8ebf;align=left;" vertex="1" parent="1">
          <mxGeometry y="160" width="240" height="40" as="geometry" />
        </mxCell>
        <mxCell id="Qu3RIkdoz-vAz7AUVEhQ-4" value="&lt;font style=&quot;font-size: 14px;&quot;&gt;int Point::PointCount()&lt;/font&gt;" style="rounded=0;whiteSpace=wrap;html=1;fillColor=#dae8fc;strokeColor=#6c8ebf;align=left;" vertex="1" parent="1">
          <mxGeometry y="320" width="240" height="40" as="geometry" />
        </mxCell>
        <mxCell id="Qu3RIkdoz-vAz7AUVEhQ-5" value="&lt;font style=&quot;font-size: 14px;&quot;&gt;float Point::_x&lt;/font&gt;" style="rounded=0;whiteSpace=wrap;html=1;fillColor=#ffe6cc;strokeColor=#d79b00;align=left;" vertex="1" parent="1">
          <mxGeometry y="480" width="240" height="40" as="geometry" />
        </mxCell>
        <mxCell id="Qu3RIkdoz-vAz7AUVEhQ-6" value="&lt;font style=&quot;font-size: 14px;&quot;&gt;ostream&amp;amp; Point::print(ostream&amp;amp; os)&lt;/font&gt;" style="rounded=0;whiteSpace=wrap;html=1;fillColor=#dae8fc;strokeColor=#6c8ebf;align=left;" vertex="1" parent="1">
          <mxGeometry y="400" width="240" height="40" as="geometry" />
        </mxCell>
        <mxCell id="Qu3RIkdoz-vAz7AUVEhQ-7" value="&lt;font style=&quot;font-size: 14px;&quot;&gt;int&amp;nbsp; Point::_point_cout&lt;/font&gt;" style="rounded=0;whiteSpace=wrap;html=1;fillColor=#ffe6cc;strokeColor=#d79b00;align=left;" vertex="1" parent="1">
          <mxGeometry y="560" width="240" height="40" as="geometry" />
        </mxCell>
        <mxCell id="Qu3RIkdoz-vAz7AUVEhQ-8" value="" style="rounded=0;whiteSpace=wrap;html=1;fontSize=14;fillColor=#f8cecc;strokeColor=#b85450;" vertex="1" parent="1">
          <mxGeometry x="-200" y="200" width="120" height="280" as="geometry" />
        </mxCell>
        <mxCell id="Qu3RIkdoz-vAz7AUVEhQ-17" style="edgeStyle=orthogonalEdgeStyle;rounded=0;orthogonalLoop=1;jettySize=auto;html=1;entryX=0;entryY=0.5;entryDx=0;entryDy=0;fontSize=14;startArrow=oval;startFill=1;" edge="1" parent="1" source="Qu3RIkdoz-vAz7AUVEhQ-9" target="Qu3RIkdoz-vAz7AUVEhQ-1">
          <mxGeometry relative="1" as="geometry">
            <Array as="points">
              <mxPoint x="-70" y="220" />
              <mxPoint x="-70" y="100" />
            </Array>
          </mxGeometry>
        </mxCell>
        <mxCell id="Qu3RIkdoz-vAz7AUVEhQ-9" value="" style="rounded=0;whiteSpace=wrap;html=1;fontSize=14;fillColor=#dae8fc;strokeColor=#6c8ebf;" vertex="1" parent="1">
          <mxGeometry x="-200" y="200" width="120" height="40" as="geometry" />
        </mxCell>
        <mxCell id="Qu3RIkdoz-vAz7AUVEhQ-18" style="edgeStyle=orthogonalEdgeStyle;rounded=0;orthogonalLoop=1;jettySize=auto;html=1;exitX=1;exitY=0.5;exitDx=0;exitDy=0;entryX=0;entryY=0.5;entryDx=0;entryDy=0;fontSize=14;startArrow=oval;startFill=1;" edge="1" parent="1" source="Qu3RIkdoz-vAz7AUVEhQ-10" target="Qu3RIkdoz-vAz7AUVEhQ-3">
          <mxGeometry relative="1" as="geometry">
            <Array as="points">
              <mxPoint x="-50" y="260" />
              <mxPoint x="-50" y="180" />
            </Array>
          </mxGeometry>
        </mxCell>
        <mxCell id="Qu3RIkdoz-vAz7AUVEhQ-10" value="" style="rounded=0;whiteSpace=wrap;html=1;fontSize=14;fillColor=#dae8fc;strokeColor=#6c8ebf;" vertex="1" parent="1">
          <mxGeometry x="-200" y="240" width="120" height="40" as="geometry" />
        </mxCell>
        <mxCell id="Qu3RIkdoz-vAz7AUVEhQ-19" style="edgeStyle=orthogonalEdgeStyle;rounded=0;orthogonalLoop=1;jettySize=auto;html=1;exitX=1;exitY=0.5;exitDx=0;exitDy=0;entryX=0;entryY=0.25;entryDx=0;entryDy=0;fontSize=14;startArrow=oval;startFill=1;" edge="1" parent="1" source="Qu3RIkdoz-vAz7AUVEhQ-11" target="Qu3RIkdoz-vAz7AUVEhQ-2">
          <mxGeometry relative="1" as="geometry" />
        </mxCell>
        <mxCell id="Qu3RIkdoz-vAz7AUVEhQ-11" value="" style="rounded=0;whiteSpace=wrap;html=1;fontSize=14;fillColor=#dae8fc;strokeColor=#6c8ebf;" vertex="1" parent="1">
          <mxGeometry x="-200" y="280" width="120" height="40" as="geometry" />
        </mxCell>
        <mxCell id="Qu3RIkdoz-vAz7AUVEhQ-20" style="edgeStyle=orthogonalEdgeStyle;rounded=0;orthogonalLoop=1;jettySize=auto;html=1;exitX=1;exitY=0.5;exitDx=0;exitDy=0;entryX=0;entryY=0.5;entryDx=0;entryDy=0;fontSize=14;startArrow=oval;startFill=1;" edge="1" parent="1" source="Qu3RIkdoz-vAz7AUVEhQ-12" target="Qu3RIkdoz-vAz7AUVEhQ-4">
          <mxGeometry relative="1" as="geometry" />
        </mxCell>
        <mxCell id="Qu3RIkdoz-vAz7AUVEhQ-12" value="" style="rounded=0;whiteSpace=wrap;html=1;fontSize=14;fillColor=#dae8fc;strokeColor=#6c8ebf;" vertex="1" parent="1">
          <mxGeometry x="-200" y="320" width="120" height="40" as="geometry" />
        </mxCell>
        <mxCell id="Qu3RIkdoz-vAz7AUVEhQ-21" style="edgeStyle=orthogonalEdgeStyle;rounded=0;orthogonalLoop=1;jettySize=auto;html=1;exitX=1;exitY=0.5;exitDx=0;exitDy=0;entryX=0;entryY=0.5;entryDx=0;entryDy=0;fontSize=14;startArrow=oval;startFill=1;" edge="1" parent="1" source="Qu3RIkdoz-vAz7AUVEhQ-13" target="Qu3RIkdoz-vAz7AUVEhQ-6">
          <mxGeometry relative="1" as="geometry">
            <Array as="points">
              <mxPoint x="-40" y="380" />
              <mxPoint x="-40" y="420" />
            </Array>
          </mxGeometry>
        </mxCell>
        <mxCell id="Qu3RIkdoz-vAz7AUVEhQ-13" value="" style="rounded=0;whiteSpace=wrap;html=1;fontSize=14;fillColor=#dae8fc;strokeColor=#6c8ebf;" vertex="1" parent="1">
          <mxGeometry x="-200" y="360" width="120" height="40" as="geometry" />
        </mxCell>
        <mxCell id="Qu3RIkdoz-vAz7AUVEhQ-22" style="edgeStyle=orthogonalEdgeStyle;rounded=0;orthogonalLoop=1;jettySize=auto;html=1;exitX=1;exitY=0.5;exitDx=0;exitDy=0;entryX=0;entryY=0.5;entryDx=0;entryDy=0;fontSize=14;startArrow=oval;startFill=1;" edge="1" parent="1" source="Qu3RIkdoz-vAz7AUVEhQ-14" target="Qu3RIkdoz-vAz7AUVEhQ-5">
          <mxGeometry relative="1" as="geometry">
            <Array as="points">
              <mxPoint x="-50" y="420" />
              <mxPoint x="-50" y="500" />
            </Array>
          </mxGeometry>
        </mxCell>
        <mxCell id="Qu3RIkdoz-vAz7AUVEhQ-14" value="" style="rounded=0;whiteSpace=wrap;html=1;fontSize=14;fillColor=#ffe6cc;strokeColor=#d79b00;" vertex="1" parent="1">
          <mxGeometry x="-200" y="400" width="120" height="40" as="geometry" />
        </mxCell>
        <mxCell id="Qu3RIkdoz-vAz7AUVEhQ-23" style="edgeStyle=orthogonalEdgeStyle;rounded=0;orthogonalLoop=1;jettySize=auto;html=1;exitX=1;exitY=0.5;exitDx=0;exitDy=0;entryX=0;entryY=0.5;entryDx=0;entryDy=0;fontSize=14;startArrow=oval;startFill=1;" edge="1" parent="1" source="Qu3RIkdoz-vAz7AUVEhQ-15" target="Qu3RIkdoz-vAz7AUVEhQ-7">
          <mxGeometry relative="1" as="geometry">
            <Array as="points">
              <mxPoint x="-60" y="460" />
              <mxPoint x="-60" y="580" />
            </Array>
          </mxGeometry>
        </mxCell>
        <mxCell id="Qu3RIkdoz-vAz7AUVEhQ-15" value="" style="rounded=0;whiteSpace=wrap;html=1;fontSize=14;fillColor=#ffe6cc;strokeColor=#d79b00;" vertex="1" parent="1">
          <mxGeometry x="-200" y="440" width="120" height="40" as="geometry" />
        </mxCell>
        <mxCell id="Qu3RIkdoz-vAz7AUVEhQ-24" value="Point pt;" style="text;html=1;strokeColor=none;fillColor=none;align=center;verticalAlign=middle;whiteSpace=wrap;rounded=0;fontSize=14;" vertex="1" parent="1">
          <mxGeometry x="-200" y="490" width="60" height="30" as="geometry" />
        </mxCell>
        <mxCell id="Qu3RIkdoz-vAz7AUVEhQ-26" value="&lt;h1 style=&quot;border-color: var(--border-color);&quot;&gt;简单对象模型(Simple Object Model)&lt;/h1&gt;&lt;p&gt;L&lt;/p&gt;" style="text;html=1;strokeColor=none;fillColor=none;spacing=5;spacingTop=-20;whiteSpace=wrap;overflow=hidden;rounded=0;fontSize=14;" vertex="1" parent="1">
          <mxGeometry x="-190" y="-80" width="490" height="120" as="geometry" />
        </mxCell>
        <mxCell id="Qu3RIkdoz-vAz7AUVEhQ-34" value="" style="rounded=0;whiteSpace=wrap;html=1;fontSize=14;fillColor=#f8cecc;strokeColor=#b85450;" vertex="1" parent="1">
          <mxGeometry x="320" y="160" width="120" height="80" as="geometry" />
        </mxCell>
        <mxCell id="Qu3RIkdoz-vAz7AUVEhQ-53" style="edgeStyle=orthogonalEdgeStyle;rounded=0;orthogonalLoop=1;jettySize=auto;html=1;exitX=1;exitY=0.5;exitDx=0;exitDy=0;entryX=0;entryY=0.5;entryDx=0;entryDy=0;fontSize=14;startArrow=oval;startFill=1;fillColor=#ffe6cc;strokeColor=#d79b00;" edge="1" parent="1" source="Qu3RIkdoz-vAz7AUVEhQ-36" target="Qu3RIkdoz-vAz7AUVEhQ-31">
          <mxGeometry relative="1" as="geometry">
            <Array as="points">
              <mxPoint x="480" y="180" />
              <mxPoint x="480" y="100" />
            </Array>
          </mxGeometry>
        </mxCell>
        <mxCell id="Qu3RIkdoz-vAz7AUVEhQ-36" value="" style="rounded=0;whiteSpace=wrap;html=1;fontSize=14;fillColor=#ffe6cc;strokeColor=#d79b00;" vertex="1" parent="1">
          <mxGeometry x="320" y="160" width="120" height="40" as="geometry" />
        </mxCell>
        <mxCell id="Qu3RIkdoz-vAz7AUVEhQ-54" style="edgeStyle=orthogonalEdgeStyle;rounded=0;orthogonalLoop=1;jettySize=auto;html=1;exitX=1;exitY=0.5;exitDx=0;exitDy=0;entryX=0;entryY=0.75;entryDx=0;entryDy=0;fontSize=14;startArrow=oval;startFill=1;fillColor=#dae8fc;strokeColor=#6c8ebf;" edge="1" parent="1" source="Qu3RIkdoz-vAz7AUVEhQ-38" target="Qu3RIkdoz-vAz7AUVEhQ-51">
          <mxGeometry relative="1" as="geometry" />
        </mxCell>
        <mxCell id="Qu3RIkdoz-vAz7AUVEhQ-38" value="" style="rounded=0;whiteSpace=wrap;html=1;fontSize=14;fillColor=#dae8fc;strokeColor=#6c8ebf;" vertex="1" parent="1">
          <mxGeometry x="320" y="200" width="120" height="40" as="geometry" />
        </mxCell>
        <mxCell id="Qu3RIkdoz-vAz7AUVEhQ-49" value="Point pt;" style="text;html=1;strokeColor=none;fillColor=none;align=center;verticalAlign=middle;whiteSpace=wrap;rounded=0;fontSize=14;" vertex="1" parent="1">
          <mxGeometry x="320" y="250" width="60" height="30" as="geometry" />
        </mxCell>
        <mxCell id="Qu3RIkdoz-vAz7AUVEhQ-50" value="" style="group;fillColor=#ffe6cc;strokeColor=#d79b00;" vertex="1" connectable="0" parent="1">
          <mxGeometry x="520" y="80" width="240" height="80" as="geometry" />
        </mxCell>
        <mxCell id="Qu3RIkdoz-vAz7AUVEhQ-31" value="&lt;font style=&quot;font-size: 14px;&quot;&gt;_x&lt;/font&gt;" style="rounded=0;whiteSpace=wrap;html=1;fillColor=#ffe6cc;strokeColor=#d79b00;align=left;" vertex="1" parent="Qu3RIkdoz-vAz7AUVEhQ-50">
          <mxGeometry width="240" height="40" as="geometry" />
        </mxCell>
        <mxCell id="Qu3RIkdoz-vAz7AUVEhQ-33" value="&lt;font style=&quot;font-size: 14px;&quot;&gt;_point_cout&lt;/font&gt;" style="rounded=0;whiteSpace=wrap;html=1;fillColor=#ffe6cc;strokeColor=#d79b00;align=left;" vertex="1" parent="Qu3RIkdoz-vAz7AUVEhQ-50">
          <mxGeometry y="40" width="240" height="40" as="geometry" />
        </mxCell>
        <mxCell id="Qu3RIkdoz-vAz7AUVEhQ-52" value="" style="group" vertex="1" connectable="0" parent="1">
          <mxGeometry x="520" y="240" width="240" height="200" as="geometry" />
        </mxCell>
        <mxCell id="Qu3RIkdoz-vAz7AUVEhQ-27" value="&lt;font style=&quot;font-size: 14px;&quot;&gt;Point::Point(float)&lt;/font&gt;" style="rounded=0;whiteSpace=wrap;html=1;fillColor=#dae8fc;strokeColor=#6c8ebf;align=left;" vertex="1" parent="Qu3RIkdoz-vAz7AUVEhQ-52">
          <mxGeometry width="240" height="40" as="geometry" />
        </mxCell>
        <mxCell id="Qu3RIkdoz-vAz7AUVEhQ-29" value="&lt;font style=&quot;font-size: 14px;&quot;&gt;Point::~Point()&lt;/font&gt;" style="rounded=0;whiteSpace=wrap;html=1;fillColor=#dae8fc;strokeColor=#6c8ebf;align=left;" vertex="1" parent="Qu3RIkdoz-vAz7AUVEhQ-52">
          <mxGeometry y="40" width="240" height="40" as="geometry" />
        </mxCell>
        <mxCell id="Qu3RIkdoz-vAz7AUVEhQ-30" value="&lt;font style=&quot;font-size: 14px;&quot;&gt;int Point::PointCount()&lt;/font&gt;" style="rounded=0;whiteSpace=wrap;html=1;fillColor=#dae8fc;strokeColor=#6c8ebf;align=left;" vertex="1" parent="Qu3RIkdoz-vAz7AUVEhQ-52">
          <mxGeometry y="120" width="240" height="40" as="geometry" />
        </mxCell>
        <mxCell id="Qu3RIkdoz-vAz7AUVEhQ-32" value="&lt;font style=&quot;font-size: 14px;&quot;&gt;ostream&amp;amp; Point::print(ostream&amp;amp; os)&lt;/font&gt;" style="rounded=0;whiteSpace=wrap;html=1;fillColor=#dae8fc;strokeColor=#6c8ebf;align=left;" vertex="1" parent="Qu3RIkdoz-vAz7AUVEhQ-52">
          <mxGeometry y="160" width="240" height="40" as="geometry" />
        </mxCell>
        <mxCell id="Qu3RIkdoz-vAz7AUVEhQ-51" value="&lt;font style=&quot;font-size: 14px;&quot;&gt;float Point::x()&lt;/font&gt;" style="rounded=0;whiteSpace=wrap;html=1;fillColor=#dae8fc;strokeColor=#6c8ebf;align=left;" vertex="1" parent="Qu3RIkdoz-vAz7AUVEhQ-52">
          <mxGeometry y="80" width="240" height="40" as="geometry" />
        </mxCell>
        <mxCell id="Qu3RIkdoz-vAz7AUVEhQ-57" value="Member Data Table(内含实际数据)" style="text;html=1;strokeColor=none;fillColor=none;align=left;verticalAlign=middle;whiteSpace=wrap;rounded=0;fontSize=14;" vertex="1" parent="1">
          <mxGeometry x="520" y="170" width="230" height="30" as="geometry" />
        </mxCell>
        <mxCell id="Qu3RIkdoz-vAz7AUVEhQ-58" value="Function Member Table(内含函数地址)" style="text;html=1;strokeColor=none;fillColor=none;align=left;verticalAlign=middle;whiteSpace=wrap;rounded=0;fontSize=14;" vertex="1" parent="1">
          <mxGeometry x="520" y="445" width="260" height="30" as="geometry" />
        </mxCell>
        <mxCell id="Qu3RIkdoz-vAz7AUVEhQ-59" value="&lt;h1 style=&quot;border-color: var(--border-color);&quot;&gt;表格驱动模型(Table-driven Object Model)&lt;/h1&gt;&lt;p&gt;L&lt;/p&gt;" style="text;html=1;strokeColor=none;fillColor=none;spacing=5;spacingTop=-20;whiteSpace=wrap;overflow=hidden;rounded=0;fontSize=14;" vertex="1" parent="1">
          <mxGeometry x="320" y="-80" width="550" height="120" as="geometry" />
        </mxCell>
        <mxCell id="Qu3RIkdoz-vAz7AUVEhQ-60" value="" style="rounded=0;whiteSpace=wrap;html=1;fontSize=14;fillColor=#f8cecc;strokeColor=#b85450;" vertex="1" parent="1">
          <mxGeometry x="920" y="160" width="120" height="80" as="geometry" />
        </mxCell>
        <mxCell id="Qu3RIkdoz-vAz7AUVEhQ-61" style="edgeStyle=orthogonalEdgeStyle;rounded=0;orthogonalLoop=1;jettySize=auto;html=1;exitX=1;exitY=0.5;exitDx=0;exitDy=0;entryX=0;entryY=0.5;entryDx=0;entryDy=0;fontSize=14;startArrow=oval;startFill=1;fillColor=#ffe6cc;strokeColor=#d79b00;" edge="1" parent="1" source="Qu3RIkdoz-vAz7AUVEhQ-62" target="Qu3RIkdoz-vAz7AUVEhQ-67">
          <mxGeometry relative="1" as="geometry">
            <Array as="points">
              <mxPoint x="1080" y="180" />
              <mxPoint x="1080" y="100" />
            </Array>
          </mxGeometry>
        </mxCell>
        <mxCell id="Qu3RIkdoz-vAz7AUVEhQ-62" value="float _x" style="rounded=0;whiteSpace=wrap;html=1;fontSize=14;fillColor=#ffe6cc;strokeColor=#d79b00;" vertex="1" parent="1">
          <mxGeometry x="920" y="160" width="120" height="40" as="geometry" />
        </mxCell>
        <mxCell id="Qu3RIkdoz-vAz7AUVEhQ-86" style="edgeStyle=orthogonalEdgeStyle;rounded=0;orthogonalLoop=1;jettySize=auto;html=1;exitX=1;exitY=0.5;exitDx=0;exitDy=0;entryX=0;entryY=0.5;entryDx=0;entryDy=0;fontSize=14;startArrow=oval;startFill=1;" edge="1" parent="1" source="Qu3RIkdoz-vAz7AUVEhQ-64" target="Qu3RIkdoz-vAz7AUVEhQ-79">
          <mxGeometry relative="1" as="geometry" />
        </mxCell>
        <mxCell id="Qu3RIkdoz-vAz7AUVEhQ-64" value="__vptr__Point" style="rounded=0;whiteSpace=wrap;html=1;fontSize=14;fillColor=#e1d5e7;strokeColor=#9673a6;" vertex="1" parent="1">
          <mxGeometry x="920" y="200" width="120" height="40" as="geometry" />
        </mxCell>
        <mxCell id="Qu3RIkdoz-vAz7AUVEhQ-65" value="Point pt;" style="text;html=1;strokeColor=none;fillColor=none;align=left;verticalAlign=middle;whiteSpace=wrap;rounded=0;fontSize=14;" vertex="1" parent="1">
          <mxGeometry x="920" y="290" width="120" height="30" as="geometry" />
        </mxCell>
        <mxCell id="Qu3RIkdoz-vAz7AUVEhQ-66" value="" style="group;fillColor=#ffe6cc;strokeColor=#d79b00;" vertex="1" connectable="0" parent="1">
          <mxGeometry x="1120" y="80" width="240" height="80" as="geometry" />
        </mxCell>
        <mxCell id="Qu3RIkdoz-vAz7AUVEhQ-67" value="&lt;font style=&quot;font-size: 14px;&quot;&gt;_x&lt;/font&gt;" style="rounded=0;whiteSpace=wrap;html=1;fillColor=#ffe6cc;strokeColor=#d79b00;align=left;" vertex="1" parent="Qu3RIkdoz-vAz7AUVEhQ-66">
          <mxGeometry width="240" height="40" as="geometry" />
        </mxCell>
        <mxCell id="Qu3RIkdoz-vAz7AUVEhQ-68" value="&lt;font style=&quot;font-size: 14px;&quot;&gt;_point_cout&lt;/font&gt;" style="rounded=0;whiteSpace=wrap;html=1;fillColor=#ffe6cc;strokeColor=#d79b00;align=left;" vertex="1" parent="Qu3RIkdoz-vAz7AUVEhQ-66">
          <mxGeometry y="40" width="240" height="40" as="geometry" />
        </mxCell>
        <mxCell id="Qu3RIkdoz-vAz7AUVEhQ-75" value="Member Data Table(内含实际数据)" style="text;html=1;strokeColor=none;fillColor=none;align=left;verticalAlign=middle;whiteSpace=wrap;rounded=0;fontSize=14;" vertex="1" parent="1">
          <mxGeometry x="1120" y="170" width="230" height="30" as="geometry" />
        </mxCell>
        <mxCell id="Qu3RIkdoz-vAz7AUVEhQ-76" value="&lt;b&gt;type_info for Pint&lt;/b&gt;" style="text;html=1;strokeColor=none;fillColor=none;align=left;verticalAlign=middle;whiteSpace=wrap;rounded=0;fontSize=14;" vertex="1" parent="1">
          <mxGeometry x="1400" y="210" width="240" height="30" as="geometry" />
        </mxCell>
        <mxCell id="Qu3RIkdoz-vAz7AUVEhQ-84" style="edgeStyle=orthogonalEdgeStyle;rounded=0;orthogonalLoop=1;jettySize=auto;html=1;exitX=1;exitY=0.5;exitDx=0;exitDy=0;entryX=0;entryY=0.5;entryDx=0;entryDy=0;fontSize=14;startArrow=oval;startFill=1;fillColor=#f8cecc;strokeColor=#b85450;" edge="1" parent="1" source="Qu3RIkdoz-vAz7AUVEhQ-78" target="Qu3RIkdoz-vAz7AUVEhQ-73">
          <mxGeometry relative="1" as="geometry" />
        </mxCell>
        <mxCell id="Qu3RIkdoz-vAz7AUVEhQ-83" style="edgeStyle=orthogonalEdgeStyle;rounded=0;orthogonalLoop=1;jettySize=auto;html=1;exitX=1;exitY=0.5;exitDx=0;exitDy=0;entryX=0;entryY=0.5;entryDx=0;entryDy=0;fontSize=14;startArrow=oval;startFill=1;fillColor=#f8cecc;strokeColor=#b85450;" edge="1" parent="1" source="Qu3RIkdoz-vAz7AUVEhQ-79" target="Qu3RIkdoz-vAz7AUVEhQ-71">
          <mxGeometry relative="1" as="geometry" />
        </mxCell>
        <mxCell id="Qu3RIkdoz-vAz7AUVEhQ-85" style="edgeStyle=orthogonalEdgeStyle;rounded=0;orthogonalLoop=1;jettySize=auto;html=1;exitX=1;exitY=0.5;exitDx=0;exitDy=0;entryX=0;entryY=0.5;entryDx=0;entryDy=0;fontSize=14;startArrow=oval;startFill=1;fillColor=#d5e8d4;strokeColor=#82b366;" edge="1" parent="1" source="Qu3RIkdoz-vAz7AUVEhQ-80" target="Qu3RIkdoz-vAz7AUVEhQ-82">
          <mxGeometry relative="1" as="geometry" />
        </mxCell>
        <mxCell id="Qu3RIkdoz-vAz7AUVEhQ-81" value="virtual table for Point" style="text;html=1;strokeColor=none;fillColor=none;align=left;verticalAlign=middle;whiteSpace=wrap;rounded=0;fontSize=14;" vertex="1" parent="1">
          <mxGeometry x="1120" y="370" width="240" height="30" as="geometry" />
        </mxCell>
        <mxCell id="Qu3RIkdoz-vAz7AUVEhQ-82" value="" style="rounded=0;whiteSpace=wrap;html=1;fontSize=14;fillColor=#d5e8d4;strokeColor=#82b366;" vertex="1" parent="1">
          <mxGeometry x="1400" y="160" width="240" height="40" as="geometry" />
        </mxCell>
        <mxCell id="Qu3RIkdoz-vAz7AUVEhQ-71" value="&lt;font style=&quot;font-size: 14px;&quot;&gt;Point::~Point()&lt;/font&gt;" style="rounded=0;whiteSpace=wrap;html=1;fillColor=#f8cecc;strokeColor=#b85450;align=left;" vertex="1" parent="1">
          <mxGeometry x="1400" y="280" width="240" height="40" as="geometry" />
        </mxCell>
        <mxCell id="Qu3RIkdoz-vAz7AUVEhQ-73" value="&lt;font style=&quot;font-size: 14px;&quot;&gt;ostream&amp;amp; Point::print(ostream&amp;amp; os)&lt;/font&gt;" style="rounded=0;whiteSpace=wrap;html=1;fillColor=#f8cecc;strokeColor=#b85450;align=left;" vertex="1" parent="1">
          <mxGeometry x="1400" y="360" width="240" height="40" as="geometry" />
        </mxCell>
        <mxCell id="Qu3RIkdoz-vAz7AUVEhQ-87" value="" style="group" vertex="1" connectable="0" parent="1">
          <mxGeometry x="1120" y="240" width="240" height="120" as="geometry" />
        </mxCell>
        <mxCell id="Qu3RIkdoz-vAz7AUVEhQ-78" value="" style="rounded=0;whiteSpace=wrap;html=1;fontSize=14;fillColor=#f8cecc;strokeColor=#b85450;" vertex="1" parent="Qu3RIkdoz-vAz7AUVEhQ-87">
          <mxGeometry y="80" width="240" height="40" as="geometry" />
        </mxCell>
        <mxCell id="Qu3RIkdoz-vAz7AUVEhQ-79" value="" style="rounded=0;whiteSpace=wrap;html=1;fontSize=14;fillColor=#f8cecc;strokeColor=#b85450;" vertex="1" parent="Qu3RIkdoz-vAz7AUVEhQ-87">
          <mxGeometry y="40" width="240" height="40" as="geometry" />
        </mxCell>
        <mxCell id="Qu3RIkdoz-vAz7AUVEhQ-80" value="" style="rounded=0;whiteSpace=wrap;html=1;fontSize=14;fillColor=#d5e8d4;strokeColor=#82b366;" vertex="1" parent="Qu3RIkdoz-vAz7AUVEhQ-87">
          <mxGeometry width="240" height="40" as="geometry" />
        </mxCell>
        <mxCell id="Qu3RIkdoz-vAz7AUVEhQ-90" value="&lt;font style=&quot;font-size: 14px;&quot;&gt;static int Point::_point_cout&lt;/font&gt;" style="rounded=0;whiteSpace=wrap;html=1;fillColor=#ffff88;strokeColor=#36393d;align=left;" vertex="1" parent="1">
          <mxGeometry x="920" y="480" width="200" height="40" as="geometry" />
        </mxCell>
        <mxCell id="Qu3RIkdoz-vAz7AUVEhQ-91" value="&lt;font style=&quot;font-size: 14px;&quot;&gt;int Point::PointCount()&lt;/font&gt;" style="rounded=0;whiteSpace=wrap;html=1;fillColor=#dae8fc;strokeColor=#6c8ebf;align=left;" vertex="1" parent="1">
          <mxGeometry y="320" width="240" height="40" as="geometry" />
        </mxCell>
        <mxCell id="Qu3RIkdoz-vAz7AUVEhQ-92" value="&lt;font style=&quot;font-size: 14px;&quot;&gt;Point::Point(float)&lt;/font&gt;" style="rounded=0;whiteSpace=wrap;html=1;fillColor=#ffff88;strokeColor=#36393d;align=left;" vertex="1" parent="1">
          <mxGeometry x="1360" y="480" width="120" height="40" as="geometry" />
        </mxCell>
        <mxCell id="Qu3RIkdoz-vAz7AUVEhQ-93" value="&lt;font style=&quot;font-size: 14px;&quot;&gt;int Point::PointCount()&lt;/font&gt;" style="rounded=0;whiteSpace=wrap;html=1;fillColor=#ffff88;strokeColor=#36393d;align=left;" vertex="1" parent="1">
          <mxGeometry x="1160" y="480" width="160" height="40" as="geometry" />
        </mxCell>
        <mxCell id="Qu3RIkdoz-vAz7AUVEhQ-94" value="&lt;font style=&quot;font-size: 14px;&quot;&gt;float Point::x()&lt;/font&gt;" style="rounded=0;whiteSpace=wrap;html=1;fillColor=#ffff88;strokeColor=#36393d;align=left;" vertex="1" parent="1">
          <mxGeometry x="1520" y="480" width="120" height="40" as="geometry" />
        </mxCell>
        <mxCell id="Qu3RIkdoz-vAz7AUVEhQ-95" value="&lt;h1 style=&quot;border-color: var(--border-color);&quot;&gt;C++对象模型(C++ Object Model)&lt;/h1&gt;&lt;p&gt;L&lt;/p&gt;" style="text;html=1;strokeColor=none;fillColor=none;spacing=5;spacingTop=-20;whiteSpace=wrap;overflow=hidden;rounded=0;fontSize=14;" vertex="1" parent="1">
          <mxGeometry x="920" y="-80" width="550" height="120" as="geometry" />
        </mxCell>
        <mxCell id="Qu3RIkdoz-vAz7AUVEhQ-96" value="" style="rounded=0;whiteSpace=wrap;html=1;fontSize=14;" vertex="1" parent="1">
          <mxGeometry x="1720" y="160" width="120" height="60" as="geometry" />
        </mxCell>
        <mxCell id="Qu3RIkdoz-vAz7AUVEhQ-97" value="" style="rounded=0;whiteSpace=wrap;html=1;fontSize=14;" vertex="1" parent="1">
          <mxGeometry x="790" y="-200" width="120" height="40" as="geometry" />
        </mxCell>
        <mxCell id="Qu3RIkdoz-vAz7AUVEhQ-98" value="" style="rounded=0;whiteSpace=wrap;html=1;fontSize=14;" vertex="1" parent="1">
          <mxGeometry x="-240" y="1120" width="120" height="60" as="geometry" />
        </mxCell>
        <mxCell id="Qu3RIkdoz-vAz7AUVEhQ-99" value="" style="rounded=0;whiteSpace=wrap;html=1;fontSize=14;" vertex="1" parent="1">
          <mxGeometry x="-400" y="120" width="120" height="40" as="geometry" />
        </mxCell>
        <mxCell id="Qu3RIkdoz-vAz7AUVEhQ-100" value="" style="rounded=0;whiteSpace=wrap;html=1;fontSize=14;fillColor=#e6d0de;strokeColor=#996185;gradientColor=#d5739d;" vertex="1" parent="1">
          <mxGeometry x="-240" y="760" width="160" height="40" as="geometry" />
        </mxCell>
        <mxCell id="Qu3RIkdoz-vAz7AUVEhQ-101" value="bptr" style="rounded=0;whiteSpace=wrap;html=1;fontSize=14;fillColor=#e1d5e7;strokeColor=#9673a6;" vertex="1" parent="1">
          <mxGeometry x="-240" y="800" width="160" height="40" as="geometry" />
        </mxCell>
        <mxCell id="Qu3RIkdoz-vAz7AUVEhQ-102" value="" style="rounded=0;whiteSpace=wrap;html=1;fontSize=14;fillColor=#f8cecc;strokeColor=#b85450;" vertex="1" parent="1">
          <mxGeometry x="-40" y="820" width="160" height="40" as="geometry" />
        </mxCell>
        <mxCell id="Qu3RIkdoz-vAz7AUVEhQ-113" style="edgeStyle=orthogonalEdgeStyle;rounded=0;orthogonalLoop=1;jettySize=auto;html=1;exitX=1;exitY=0.5;exitDx=0;exitDy=0;entryX=0;entryY=0;entryDx=0;entryDy=0;fontSize=14;startArrow=oval;startFill=1;fillColor=#e1d5e7;strokeColor=#9673a6;" edge="1" parent="1" source="Qu3RIkdoz-vAz7AUVEhQ-101" target="Qu3RIkdoz-vAz7AUVEhQ-102">
          <mxGeometry relative="1" as="geometry">
            <Array as="points">
              <mxPoint x="-50" y="820" />
              <mxPoint x="-50" y="820" />
            </Array>
          </mxGeometry>
        </mxCell>
        <mxCell id="Qu3RIkdoz-vAz7AUVEhQ-103" value="" style="rounded=0;whiteSpace=wrap;html=1;fontSize=14;fillColor=#f8cecc;strokeColor=#b85450;" vertex="1" parent="1">
          <mxGeometry x="-40" y="860" width="160" height="40" as="geometry" />
        </mxCell>
        <mxCell id="Qu3RIkdoz-vAz7AUVEhQ-104" value="&lt;b&gt;base class table for iostream&amp;nbsp;&lt;/b&gt;" style="text;html=1;strokeColor=none;fillColor=none;align=left;verticalAlign=middle;whiteSpace=wrap;rounded=0;fontSize=14;" vertex="1" parent="1">
          <mxGeometry x="-40" y="900" width="200" height="30" as="geometry" />
        </mxCell>
        <mxCell id="Qu3RIkdoz-vAz7AUVEhQ-105" value="istream class object" style="rounded=0;whiteSpace=wrap;html=1;fontSize=14;fillColor=#dae8fc;strokeColor=#6c8ebf;" vertex="1" parent="1">
          <mxGeometry x="200" y="760" width="160" height="40" as="geometry" />
        </mxCell>
        <mxCell id="Qu3RIkdoz-vAz7AUVEhQ-106" value="ostream class object" style="rounded=0;whiteSpace=wrap;html=1;fontSize=14;fillColor=#dae8fc;strokeColor=#6c8ebf;" vertex="1" parent="1">
          <mxGeometry x="200" y="920" width="160" height="40" as="geometry" />
        </mxCell>
        <mxCell id="Qu3RIkdoz-vAz7AUVEhQ-107" value="" style="rounded=0;whiteSpace=wrap;html=1;fontSize=14;fillColor=#f8cecc;strokeColor=#b85450;" vertex="1" parent="1">
          <mxGeometry x="400" y="780" width="160" height="40" as="geometry" />
        </mxCell>
        <mxCell id="Qu3RIkdoz-vAz7AUVEhQ-111" style="edgeStyle=orthogonalEdgeStyle;rounded=0;orthogonalLoop=1;jettySize=auto;html=1;exitX=1;exitY=0.5;exitDx=0;exitDy=0;entryX=0;entryY=0;entryDx=0;entryDy=0;fontSize=14;startArrow=oval;startFill=1;" edge="1" parent="1" source="Qu3RIkdoz-vAz7AUVEhQ-105" target="Qu3RIkdoz-vAz7AUVEhQ-107">
          <mxGeometry relative="1" as="geometry">
            <Array as="points">
              <mxPoint x="390" y="780" />
              <mxPoint x="390" y="780" />
            </Array>
          </mxGeometry>
        </mxCell>
        <mxCell id="Qu3RIkdoz-vAz7AUVEhQ-108" value="&lt;b&gt;base class table for istream&amp;nbsp;&lt;/b&gt;" style="text;html=1;strokeColor=none;fillColor=none;align=left;verticalAlign=middle;whiteSpace=wrap;rounded=0;fontSize=14;" vertex="1" parent="1">
          <mxGeometry x="400" y="820" width="200" height="20" as="geometry" />
        </mxCell>
        <mxCell id="Qu3RIkdoz-vAz7AUVEhQ-109" value="" style="rounded=0;whiteSpace=wrap;html=1;fontSize=14;fillColor=#f8cecc;strokeColor=#b85450;" vertex="1" parent="1">
          <mxGeometry x="400" y="940" width="160" height="40" as="geometry" />
        </mxCell>
        <mxCell id="Qu3RIkdoz-vAz7AUVEhQ-112" style="edgeStyle=orthogonalEdgeStyle;rounded=0;orthogonalLoop=1;jettySize=auto;html=1;exitX=1;exitY=0.5;exitDx=0;exitDy=0;entryX=0;entryY=0;entryDx=0;entryDy=0;fontSize=14;startArrow=oval;startFill=1;" edge="1" parent="1" source="Qu3RIkdoz-vAz7AUVEhQ-106" target="Qu3RIkdoz-vAz7AUVEhQ-109">
          <mxGeometry relative="1" as="geometry">
            <Array as="points">
              <mxPoint x="390" y="940" />
              <mxPoint x="390" y="940" />
            </Array>
          </mxGeometry>
        </mxCell>
        <mxCell id="Qu3RIkdoz-vAz7AUVEhQ-110" value="&lt;b&gt;base class table for ostream&amp;nbsp;&lt;/b&gt;" style="text;html=1;strokeColor=none;fillColor=none;align=left;verticalAlign=middle;whiteSpace=wrap;rounded=0;fontSize=14;" vertex="1" parent="1">
          <mxGeometry x="400" y="980" width="200" height="20" as="geometry" />
        </mxCell>
        <mxCell id="Qu3RIkdoz-vAz7AUVEhQ-114" value="" style="rounded=0;whiteSpace=wrap;html=1;fontSize=14;fillColor=#ffe6cc;strokeColor=#d79b00;" vertex="1" parent="1">
          <mxGeometry x="640" y="870" width="120" height="40" as="geometry" />
        </mxCell>
        <mxCell id="Qu3RIkdoz-vAz7AUVEhQ-116" style="rounded=0;orthogonalLoop=1;jettySize=auto;html=1;exitX=1;exitY=0.5;exitDx=0;exitDy=0;entryX=0;entryY=0.5;entryDx=0;entryDy=0;fontSize=14;startArrow=oval;startFill=1;" edge="1" parent="1" source="Qu3RIkdoz-vAz7AUVEhQ-107" target="Qu3RIkdoz-vAz7AUVEhQ-114">
          <mxGeometry relative="1" as="geometry" />
        </mxCell>
        <mxCell id="Qu3RIkdoz-vAz7AUVEhQ-117" style="edgeStyle=none;rounded=0;orthogonalLoop=1;jettySize=auto;html=1;exitX=1;exitY=0.5;exitDx=0;exitDy=0;fontSize=14;startArrow=oval;startFill=1;entryX=0;entryY=0.5;entryDx=0;entryDy=0;" edge="1" parent="1" source="Qu3RIkdoz-vAz7AUVEhQ-109" target="Qu3RIkdoz-vAz7AUVEhQ-114">
          <mxGeometry relative="1" as="geometry">
            <mxPoint x="640" y="830" as="targetPoint" />
          </mxGeometry>
        </mxCell>
        <mxCell id="Qu3RIkdoz-vAz7AUVEhQ-115" value="ios class object" style="text;html=1;strokeColor=none;fillColor=none;align=left;verticalAlign=middle;whiteSpace=wrap;rounded=0;fontSize=14;" vertex="1" parent="1">
          <mxGeometry x="640" y="920" width="120" height="20" as="geometry" />
        </mxCell>
        <mxCell id="Qu3RIkdoz-vAz7AUVEhQ-120" value="iostream class object" style="text;html=1;strokeColor=none;fillColor=none;align=left;verticalAlign=middle;whiteSpace=wrap;rounded=0;fontSize=14;" vertex="1" parent="1">
          <mxGeometry x="-240" y="850" width="160" height="30" as="geometry" />
        </mxCell>
        <mxCell id="Qu3RIkdoz-vAz7AUVEhQ-121" value="" style="rounded=0;whiteSpace=wrap;html=1;fontSize=14;fillColor=#dae8fc;strokeColor=#6c8ebf;gradientColor=#7ea6e0;" vertex="1" parent="1">
          <mxGeometry x="200" y="720" width="160" height="40" as="geometry" />
        </mxCell>
        <mxCell id="Qu3RIkdoz-vAz7AUVEhQ-118" style="edgeStyle=orthogonalEdgeStyle;rounded=0;orthogonalLoop=1;jettySize=auto;html=1;exitX=1;exitY=0.5;exitDx=0;exitDy=0;entryX=0;entryY=0;entryDx=0;entryDy=0;fontSize=14;startArrow=oval;startFill=1;" edge="1" parent="1" source="Qu3RIkdoz-vAz7AUVEhQ-102" target="Qu3RIkdoz-vAz7AUVEhQ-121">
          <mxGeometry relative="1" as="geometry">
            <Array as="points">
              <mxPoint x="140" y="840" />
              <mxPoint x="140" y="720" />
            </Array>
          </mxGeometry>
        </mxCell>
        <mxCell id="Qu3RIkdoz-vAz7AUVEhQ-122" value="" style="rounded=0;whiteSpace=wrap;html=1;fontSize=14;fillColor=#dae8fc;strokeColor=#6c8ebf;gradientColor=#7ea6e0;" vertex="1" parent="1">
          <mxGeometry x="200" y="880" width="160" height="40" as="geometry" />
        </mxCell>
        <mxCell id="Qu3RIkdoz-vAz7AUVEhQ-119" style="edgeStyle=orthogonalEdgeStyle;rounded=0;orthogonalLoop=1;jettySize=auto;html=1;exitX=1;exitY=0.5;exitDx=0;exitDy=0;entryX=0;entryY=0;entryDx=0;entryDy=0;fontSize=14;startArrow=oval;startFill=1;" edge="1" parent="1" source="Qu3RIkdoz-vAz7AUVEhQ-103" target="Qu3RIkdoz-vAz7AUVEhQ-122">
          <mxGeometry relative="1" as="geometry">
            <Array as="points">
              <mxPoint x="150" y="880" />
              <mxPoint x="150" y="880" />
            </Array>
          </mxGeometry>
        </mxCell>
      </root>
    </mxGraphModel>
  </diagram>
</mxfile>
